<svg width="340" height="340" viewBox="0 0 340 340" fill="none" xmlns="http://www.w3.org/2000/svg">
<path fill-rule="evenodd" clip-rule="evenodd" d="M329.071 0C335.107 3.75509e-06 340 4.89321 340 10.9289V329.071C340 335.107 335.107 340 329.071 340H10.9289C4.89321 340 3.32493e-07 335.107 0 329.071V10.9289C3.75521e-06 4.89321 4.89321 3.32483e-07 10.9289 0H329.071ZM100.786 258.644C98.774 258.644 97.142 260.273 97.1417 262.285V302.357C97.1417 304.369 98.7737 306 100.786 306.001H302.357C304.369 306.001 306.001 304.369 306.001 302.357V262.285C306 260.273 304.368 258.644 302.357 258.644H100.786Z" fill="#25D366"/>
</svg>
