<svg width="22" height="26" viewBox="0 0 22 26" fill="none" xmlns="http://www.w3.org/2000/svg">
<g clip-path="url(#clip0_1819_168)">
<path d="M1 5.8C1 4.12 1 3.28 1.327 2.638C1.61462 2.07354 2.07354 1.61462 2.638 1.327C3.28 1 4.12 1 5.8 1H11.349C12.327 1 12.817 1 13.277 1.11C13.685 1.209 14.075 1.37 14.433 1.59C14.837 1.837 15.183 2.183 15.874 2.875L17 4L19.125 6.125C19.817 6.817 20.163 7.163 20.411 7.567C20.6303 7.92482 20.792 8.31492 20.89 8.723C21 9.183 21 9.673 21 10.651V20.2C21 21.88 21 22.72 20.673 23.362C20.3854 23.9265 19.9265 24.3854 19.362 24.673C18.72 25 17.88 25 16.2 25H5.8C4.12 25 3.28 25 2.638 24.673C2.07354 24.3854 1.61462 23.9265 1.327 23.362C1 22.72 1 21.88 1 20.2V5.8Z" fill="#757778"/>
<path d="M21.133 8.665L20.89 8.723M21.133 8.665C21.0286 8.2311 20.8565 7.81635 20.623 7.436C20.361 7.007 19.995 6.642 19.329 5.976L19.302 5.949L17.177 3.823L16.051 2.698L16.024 2.671C15.358 2.005 14.993 1.639 14.564 1.376C14.1836 1.14289 13.7688 0.971121 13.335 0.867C12.846 0.75 12.33 0.75 11.387 0.75H5.788C4.958 0.75 4.32 0.75 3.809 0.792C3.294 0.834 2.887 0.92 2.525 1.104C1.91363 1.41556 1.41656 1.91263 1.105 2.524C0.92 2.887 0.834 3.294 0.792 3.809C0.75 4.32 0.75 4.96 0.75 5.79V20.213C0.75 21.043 0.75 21.681 0.792 22.192C0.834 22.707 0.92 23.114 1.104 23.477C1.41556 24.0884 1.91263 24.5854 2.524 24.897C2.887 25.081 3.294 25.167 3.809 25.209C4.319 25.251 4.959 25.251 5.789 25.251H16.212C17.042 25.251 17.68 25.251 18.191 25.209C18.706 25.167 19.113 25.081 19.476 24.897C20.0874 24.5854 20.5844 24.0884 20.896 23.477C21.08 23.114 21.166 22.707 21.208 22.192C21.25 21.682 21.25 21.042 21.25 20.212V10.614C21.25 9.672 21.25 9.155 21.133 8.666V8.665Z" stroke="white" stroke-opacity="0.15" stroke-width="0.5"/>
<g filter="url(#filter0_d_1819_168)">
<path fill-rule="evenodd" clip-rule="evenodd" d="M20.7083 8.09L14.7333 8.064C14.4682 8.06268 14.2146 7.95619 14.028 7.76793C13.8414 7.57967 13.7372 7.32504 13.7383 7.06L13.7633 1.25C13.9823 1.336 14.1933 1.44 14.3943 1.564C14.7943 1.808 15.1383 2.15 15.8243 2.832L16.9983 3.997L19.1413 6.127C19.8423 6.823 20.1933 7.171 20.4433 7.579C20.5443 7.743 20.6333 7.914 20.7093 8.09H20.7083Z" fill="white" fill-opacity="0.4"/>
</g>
</g>
<defs>
<filter id="filter0_d_1819_168" x="13.2383" y="1.25" width="7.97266" height="7.84375" filterUnits="userSpaceOnUse" color-interpolation-filters="sRGB">
<feFlood flood-opacity="0" result="BackgroundImageFix"/>
<feColorMatrix in="SourceAlpha" type="matrix" values="0 0 0 0 0 0 0 0 0 0 0 0 0 0 0 0 0 0 127 0" result="hardAlpha"/>
<feOffset dy="0.5"/>
<feGaussianBlur stdDeviation="0.25"/>
<feComposite in2="hardAlpha" operator="out"/>
<feColorMatrix type="matrix" values="0 0 0 0 0 0 0 0 0 0 0 0 0 0 0 0 0 0 0.25 0"/>
<feBlend mode="normal" in2="BackgroundImageFix" result="effect1_dropShadow_1819_168"/>
<feBlend mode="normal" in="SourceGraphic" in2="effect1_dropShadow_1819_168" result="shape"/>
</filter>
<clipPath id="clip0_1819_168">
<rect width="22" height="26" fill="white"/>
</clipPath>
</defs>
</svg>
