<svg width="698" height="118" viewBox="0 0 698 118" fill="none" xmlns="http://www.w3.org/2000/svg">
<path fill-rule="evenodd" clip-rule="evenodd" d="M114.207 0C116.302 1.30324e-06 118 1.69823 118 3.79297V114.207C118 116.302 116.302 118 114.207 118H3.79297C1.69823 118 1.15395e-07 116.302 0 114.207V3.79297C1.30328e-06 1.69823 1.69823 1.15391e-07 3.79297 0H114.207ZM34.9785 89.7646C34.2804 89.7647 33.714 90.3302 33.7139 91.0283V104.936C33.7139 105.634 34.2803 106.2 34.9785 106.2H104.936C105.634 106.2 106.2 105.634 106.2 104.936V91.0283C106.2 90.3302 105.634 89.7646 104.936 89.7646H34.9785Z" fill="#25D366"/>
<path d="M696.481 59.3096L673.471 81.2803L697.391 105.98L684.651 117.55L651.241 81.54V81.1504L685.171 47.6104L696.481 59.3096Z" fill="#25D366"/>
<path fill-rule="evenodd" clip-rule="evenodd" d="M248.152 47.8701C264.879 47.8701 275.539 56.0165 280.133 72.3096L291.442 113L275.973 117.29L273.633 108.97C266.96 114.516 259.376 117.29 250.883 117.29C245.856 117.29 241.436 116.293 237.623 114.3C233.81 112.22 230.862 109.447 228.782 105.98C226.702 102.427 225.663 98.4836 225.663 94.1504C225.663 89.9904 226.659 86.2198 228.652 82.8398C230.646 79.4599 233.506 76.8168 237.232 74.9102C241.046 73.0035 245.51 72.0498 250.623 72.0498C255.476 72.0499 260.026 73.1333 264.272 75.2998C262.799 70.7933 260.503 67.4134 257.383 65.1602C254.263 62.9069 250.276 61.7803 245.423 61.7803C240.396 61.7803 235.846 63.2967 231.772 66.3301H230.732L235.673 50.4697C237.406 49.6898 239.399 49.0837 241.652 48.6504C243.992 48.1304 246.159 47.8701 248.152 47.8701ZM254.393 84.2695C250.753 84.2695 247.849 85.1368 245.683 86.8701C243.516 88.6034 242.433 90.8999 242.433 93.7598C242.433 96.6198 243.473 98.9603 245.553 100.78C247.719 102.514 250.58 103.38 254.133 103.38C260.199 103.38 265.573 101.213 270.253 96.8799L268.043 88.5596C263.883 85.6996 259.333 84.2695 254.393 84.2695Z" fill="#25D366"/>
<path fill-rule="evenodd" clip-rule="evenodd" d="M354.412 47.8701C371.139 47.8701 381.799 56.0165 386.393 72.3096L397.702 113L382.232 117.29L379.893 108.97C373.219 114.516 365.636 117.29 357.143 117.29C352.116 117.29 347.696 116.293 343.883 114.3C340.07 112.22 337.122 109.447 335.042 105.98C332.962 102.427 331.923 98.4836 331.923 94.1504C331.923 89.9904 332.919 86.2198 334.912 82.8398C336.905 79.4599 339.766 76.8168 343.492 74.9102C347.306 73.0035 351.769 72.0498 356.883 72.0498C361.736 72.0499 366.286 73.1333 370.532 75.2998C369.059 70.7933 366.762 67.4134 363.643 65.1602C360.523 62.9069 356.536 61.7803 351.683 61.7803C346.656 61.7803 342.106 63.2967 338.032 66.3301H336.992L341.933 50.4697C343.666 49.6898 345.659 49.0837 347.912 48.6504C350.252 48.1304 352.419 47.8701 354.412 47.8701ZM360.652 84.2695C357.012 84.2695 354.109 85.1368 351.942 86.8701C349.776 88.6034 348.692 90.8999 348.692 93.7598C348.692 96.6198 349.732 98.9603 351.812 100.78C353.979 102.514 356.839 103.38 360.393 103.38C366.459 103.38 371.833 101.213 376.513 96.8799L374.303 88.5596C370.143 85.6996 365.592 84.2695 360.652 84.2695Z" fill="#25D366"/>
<path fill-rule="evenodd" clip-rule="evenodd" d="M425.63 52.0303C430.917 49.2569 436.593 47.8701 442.66 47.8701C448.987 47.8701 454.793 49.3434 460.08 52.29C465.367 55.2367 469.527 59.353 472.561 64.6396C475.681 69.9263 477.24 75.9067 477.24 82.5801C477.24 89.34 475.681 95.3637 472.561 100.65C469.441 105.85 465.194 109.923 459.82 112.87C454.534 115.817 448.684 117.29 442.271 117.29C433.431 117.29 425.544 114.516 418.61 108.97L409.12 116.9H408.08V22H425.63V52.0303ZM440.71 63.4697C435.077 63.4698 430.05 65.4636 425.63 69.4502V95.9697C430.137 99.783 435.163 101.69 440.71 101.69C446.257 101.69 450.807 100 454.36 96.6201C457.914 93.1535 459.69 88.4733 459.69 82.5801C459.69 76.6868 457.914 72.0499 454.36 68.6699C450.807 65.2033 446.257 63.4697 440.71 63.4697Z" fill="#25D366"/>
<path fill-rule="evenodd" clip-rule="evenodd" d="M507.391 47.8701C524.117 47.8701 534.778 56.0165 539.371 72.3096L550.681 113L535.211 117.29L532.871 108.97C526.198 114.516 518.614 117.29 510.121 117.29C505.095 117.29 500.675 116.293 496.861 114.3C493.048 112.22 490.101 109.447 488.021 105.98C485.941 102.427 484.901 98.4836 484.901 94.1504C484.901 89.9904 485.897 86.2198 487.891 82.8398C489.884 79.4599 492.744 76.8168 496.471 74.9102C500.284 73.0035 504.748 72.0498 509.861 72.0498C514.714 72.0499 519.264 73.1333 523.511 75.2998C522.037 70.7933 519.741 67.4135 516.621 65.1602C513.501 62.9068 509.514 61.7803 504.661 61.7803C499.634 61.7803 495.084 63.2967 491.011 66.3301H489.971L494.911 50.4697C496.644 49.6898 498.638 49.0837 500.891 48.6504C503.231 48.1304 505.397 47.8701 507.391 47.8701ZM513.631 84.2695C509.991 84.2695 507.088 85.1368 504.921 86.8701C502.754 88.6034 501.671 90.8999 501.671 93.7598C501.671 96.6198 502.711 98.9603 504.791 100.78C506.958 102.514 509.818 103.38 513.371 103.38C519.438 103.38 524.811 101.213 529.491 96.8799L527.281 88.5596C523.121 85.6996 518.571 84.2695 513.631 84.2695Z" fill="#25D366"/>
<path fill-rule="evenodd" clip-rule="evenodd" d="M579.373 47.8701C596.1 47.8701 606.76 56.0165 611.354 72.3096L622.663 113L607.193 117.29L604.854 108.97C598.18 114.516 590.597 117.29 582.104 117.29C577.077 117.29 572.657 116.293 568.844 114.3C565.03 112.22 562.083 109.447 560.003 105.98C557.923 102.427 556.884 98.4836 556.884 94.1504C556.884 89.9904 557.88 86.2198 559.873 82.8398C561.866 79.4599 564.727 76.8168 568.453 74.9102C572.266 73.0035 576.73 72.0498 581.844 72.0498C586.697 72.0499 591.247 73.1333 595.493 75.2998C594.02 70.7933 591.723 67.4135 588.604 65.1602C585.484 62.9068 581.497 61.7803 576.644 61.7803C571.617 61.7803 567.066 63.2967 562.993 66.3301H561.953L566.894 50.4697C568.627 49.6898 570.62 49.0837 572.873 48.6504C575.213 48.1304 577.38 47.8701 579.373 47.8701ZM585.613 84.2695C581.973 84.2695 579.07 85.1368 576.903 86.8701C574.737 88.6034 573.653 90.8999 573.653 93.7598C573.653 96.6198 574.693 98.9603 576.773 100.78C578.94 102.514 581.8 103.38 585.354 103.38C591.42 103.38 596.794 101.213 601.474 96.8799L599.264 88.5596C595.104 85.6996 590.553 84.2695 585.613 84.2695Z" fill="#25D366"/>
<path d="M168.55 52.8096C174.096 49.5163 179.73 47.8701 185.45 47.8701C194.203 47.8702 201.18 50.47 206.38 55.6699C211.667 60.8699 214.31 68.1499 214.31 77.5098V115.6H196.76V77.9004C196.76 73.2204 195.633 69.6669 193.38 67.2402C191.127 64.7269 187.92 63.4697 183.76 63.4697C178.3 63.4698 173.23 65.55 168.55 69.71V115.6H151V22H168.55V52.8096Z" fill="#25D366"/>
<path d="M319.37 115.6H301.82V22H319.37V115.6Z" fill="#25D366"/>
<path d="M650.591 115.6H633.041V22H650.591V115.6Z" fill="#25D366"/>
</svg>
