<svg width="647" height="137" viewBox="0 0 647 137" fill="none" xmlns="http://www.w3.org/2000/svg">
<path d="M72.3154 46.0195C72.9035 45.3613 73.8496 45.3333 74.4678 45.9561C75.0594 46.5524 75.1558 47.5508 74.6924 48.2754L58.3457 73.8125C57.0696 75.8058 54.5703 76.2148 52.8379 74.7139C50.9968 73.1183 50.8243 70.0764 52.4707 68.2334L72.3154 46.0195Z" fill="#25D366"/>
<path fill-rule="evenodd" clip-rule="evenodd" d="M62 0C96.2416 8.78449e-07 124 27.5262 124 61.4814C124 95.4367 96.2417 122.963 62 122.963C55.0847 122.963 48.4339 121.839 42.2227 119.768L20.8027 136.446C18.9609 137.88 16.4305 136.355 16.5254 133.868L17.6494 104.469L17.666 104.461C6.73642 93.3762 0 78.2089 0 61.4814C2.14236e-05 27.5262 27.7584 0 62 0ZM85.9668 33.7236C86.2576 30.284 83.0009 27.8745 80.2881 29.5225L29.1699 60.5781C26.2286 62.3656 26.5789 67.2109 29.7383 68.4473L41.8604 73.1904C42.8918 73.5943 43.582 74.6851 43.582 75.9082V83.8018C43.5823 91.3623 51.9794 94.8523 56.3877 89.124L61.082 83.0225C61.771 82.1276 62.8793 81.795 63.876 82.1836L76.6484 87.1631C79.0115 88.0842 81.5209 86.2816 81.7568 83.4932L85.9668 33.7236Z" fill="#25D366"/>
<path fill-rule="evenodd" clip-rule="evenodd" d="M259.966 45.791C276.571 45.7911 287.153 53.9135 291.713 70.1572L302.94 110.723L287.583 115L285.26 106.705C278.635 112.235 271.107 115 262.676 115C257.686 115 253.298 114.007 249.513 112.02C245.727 109.946 242.801 107.181 240.736 103.725C238.672 100.182 237.64 96.2507 237.64 91.9307C237.64 87.7835 238.629 84.0249 240.607 80.6553C242.586 77.2856 245.426 74.6499 249.125 72.749C252.911 70.8482 257.342 69.8975 262.418 69.8975C267.236 69.8975 271.753 70.9777 275.969 73.1377C274.506 68.6448 272.226 65.2748 269.129 63.0283C266.032 60.7819 262.074 59.6592 257.256 59.6592C252.266 59.6592 247.749 61.1712 243.705 64.1953H242.673L247.576 48.3838C249.297 47.6062 251.276 47.0013 253.513 46.5693C255.836 46.0509 257.987 45.791 259.966 45.791ZM266.16 82.0801C262.547 82.0801 259.665 82.9448 257.514 84.6729C255.363 86.4009 254.287 88.6907 254.287 91.542C254.287 94.3931 255.32 96.7257 257.385 98.54C259.536 100.268 262.375 101.133 265.902 101.133C271.925 101.133 277.259 98.9722 281.904 94.6523L279.711 86.3574C275.581 83.5061 271.064 82.0801 266.16 82.0801Z" fill="#25D366"/>
<path fill-rule="evenodd" clip-rule="evenodd" d="M331.424 45.791C348.029 45.791 358.611 53.9135 363.171 70.1572L374.399 110.723L359.042 115L356.719 106.705C350.094 112.235 342.565 115 334.134 115C329.144 115 324.756 114.007 320.971 112.02C317.185 109.946 314.26 107.181 312.195 103.725C310.13 100.182 309.098 96.2507 309.098 91.9307C309.098 87.7834 310.088 84.0249 312.066 80.6553C314.045 77.2856 316.884 74.6499 320.584 72.749C324.369 70.8483 328.8 69.8975 333.876 69.8975C338.694 69.8975 343.211 70.9776 347.427 73.1377C345.964 68.6448 343.684 65.2748 340.587 63.0283C337.49 60.7819 333.532 59.6592 328.714 59.6592C323.724 59.6592 319.207 61.1712 315.163 64.1953H314.131L319.035 48.3838C320.756 47.6062 322.735 47.0014 324.972 46.5693C327.294 46.051 329.445 45.791 331.424 45.791ZM337.619 82.0801C334.006 82.0801 331.123 82.9448 328.972 84.6729C326.821 86.4009 325.746 88.6909 325.746 91.542C325.746 94.393 326.778 96.7257 328.843 98.54C330.994 100.268 333.833 101.133 337.36 101.133C343.383 101.133 348.717 98.9724 353.363 94.6523L351.169 86.3574C347.039 83.5063 342.523 82.0802 337.619 82.0801Z" fill="#25D366"/>
<path fill-rule="evenodd" clip-rule="evenodd" d="M498.539 45.791C515.144 45.7911 525.726 53.9136 530.286 70.1572L541.514 110.723L526.156 115L523.833 106.705C517.208 112.235 509.68 115 501.249 115C496.259 115 491.871 114.007 488.085 112.02C484.299 109.946 481.374 107.181 479.31 103.725C477.245 100.182 476.213 96.2507 476.213 91.9307C476.213 87.7835 477.202 84.0249 479.181 80.6553C481.159 77.2856 483.999 74.6499 487.698 72.749C491.484 70.8482 495.915 69.8975 500.991 69.8975C505.809 69.8975 510.325 70.9778 514.541 73.1377C513.078 68.6448 510.798 65.2748 507.701 63.0283C504.604 60.7821 500.647 59.6593 495.829 59.6592C490.839 59.6592 486.322 61.1713 482.278 64.1953H481.245L486.149 48.3838C487.87 47.6062 489.849 47.0013 492.086 46.5693C494.409 46.0509 496.56 45.791 498.539 45.791ZM504.733 82.0801C501.12 82.0801 498.238 82.9448 496.087 84.6729C493.936 86.4009 492.86 88.6907 492.86 91.542C492.86 94.3931 493.893 96.7257 495.958 98.54C498.109 100.268 500.948 101.133 504.476 101.133C510.498 101.133 515.832 98.9722 520.478 94.6523L518.284 86.3574C514.154 83.5061 509.637 82.0801 504.733 82.0801Z" fill="#25D366"/>
<path fill-rule="evenodd" clip-rule="evenodd" d="M604.025 45.791C620.63 45.7911 631.213 53.9136 635.772 70.1572L647 110.723L631.643 115L629.319 106.705C622.695 112.235 615.167 115 606.735 115C601.745 115 597.357 114.007 593.571 112.02C589.786 109.946 586.861 107.181 584.796 103.725C582.731 100.182 581.699 96.2507 581.699 91.9307C581.699 87.7835 582.688 84.0249 584.667 80.6553C586.646 77.2856 589.485 74.6499 593.185 72.749C596.97 70.8482 601.401 69.8975 606.478 69.8975C611.295 69.8975 615.812 70.9778 620.027 73.1377C618.565 68.6449 616.285 65.2748 613.188 63.0283C610.09 60.7821 606.133 59.6592 601.315 59.6592C596.325 59.6592 591.808 61.1713 587.765 64.1953H586.731L591.636 48.3838C593.356 47.6062 595.335 47.0013 597.572 46.5693C599.895 46.0509 602.047 45.791 604.025 45.791ZM610.22 82.0801C606.606 82.0801 603.724 82.9448 601.573 84.6729C599.422 86.4009 598.347 88.6907 598.347 91.542C598.347 94.3931 599.38 96.7257 601.444 98.54C603.595 100.268 606.434 101.133 609.962 101.133C615.984 101.133 621.318 98.9722 625.964 94.6523L623.771 86.3574C619.641 83.5061 615.124 82.0801 610.22 82.0801Z" fill="#25D366"/>
<path d="M243.82 30.8867L210.525 78.7109V113.315H191.812V79.0996L158 31.4053L173.357 20.6484L201.362 61.2139L229.237 20.6484L243.82 30.8867Z" fill="#25D366"/>
<path d="M404.689 58.752H444.309V22.5918H463.021V113.315H444.309V75.8594H404.689V113.315H385.977V22.5918H404.689V58.752Z" fill="#25D366"/>
<path d="M569.238 113.315H551.815V20H569.238V113.315Z" fill="#25D366"/>
</svg>
